<svg width="36" height="36" viewBox="0 0 36 36" fill="none" xmlns="http://www.w3.org/2000/svg">
<circle cx="18" cy="18" r="18" fill="#7C7268"/>
<mask id="mask0_2111_21463" style="mask-type:alpha" maskUnits="userSpaceOnUse" x="8" y="10" width="22" height="16">
<path fill-rule="evenodd" clip-rule="evenodd" d="M16.3675 10.9498C16.5055 10.9142 16.6949 10.8663 16.9257 10.9833L16.9521 10.9902L17.0424 11.1515C17.0424 11.1515 17.1585 11.3696 17.1622 11.3754L17.1941 11.5526C16.9103 13.0354 16.6795 14.8135 16.6036 16.0637C17.7617 15.3194 19.9765 13.9409 20.96 13.3807L21.0963 13.3051C21.2746 13.2073 21.4438 13.1152 21.6454 12.9247C22.5366 12.0868 23.517 11.6308 24.2756 11.7053C24.3429 11.7181 24.3928 11.7809 24.4077 11.8361C24.4613 12.0277 24.457 12.1937 24.3928 12.4092L24.3716 12.5475C24.3716 12.5475 24.326 12.6997 24.3249 12.7013C23.352 13.7116 21.4995 14.7331 19.8662 15.6344C19.8662 15.6344 18.1686 16.5979 18.1638 16.6C18.1638 16.6 18.0582 16.6702 18.0721 16.6538C18.0041 16.757 17.6869 16.9539 16.9999 17.3571C16.9999 17.3571 16.5098 17.6524 16.488 17.6769C16.488 17.6769 16.4864 17.736 16.4853 17.7657L16.5554 17.8127C16.6808 17.8967 16.9065 18.0482 16.9065 18.0482C17.6874 18.5702 18.6598 19.2198 19.1707 19.6305L19.2619 19.7061C19.429 19.8449 19.7091 20.0774 19.8635 20.1364C20.7505 20.4743 21.7276 21.1633 22.5122 21.7171C22.5122 21.7171 23.4008 22.3189 23.4411 22.346C24.4331 22.3811 25.2363 22.2678 25.9668 21.9906C26.737 21.6996 27.3238 21.2362 27.6166 20.6855C28.0102 19.9412 27.9015 19.2943 27.8511 19.2214C27.4781 18.8128 27.0066 18.6601 26.4097 18.7548C25.3535 18.9165 24.4597 19.9896 24.2379 20.8893C24.2379 20.8893 24.237 20.9312 24.2358 20.9837L24.2333 21.0934C24.2322 21.146 24.2313 21.1882 24.2315 21.1888C24.2368 21.2995 24.1801 21.3809 24.083 21.3921C24.083 21.3921 23.9642 21.4101 23.9674 21.4091C23.6618 21.5256 23.1313 21.6677 22.9626 21.6054C22.8082 21.5485 22.6083 21.3916 22.5944 21.2873C22.473 20.245 22.4757 19.0314 22.6066 17.6503C22.6066 17.6503 22.6512 17.5295 22.6486 17.5332C22.725 17.4161 22.7998 16.4489 22.8056 16.1031L22.8862 15.927C23.0332 15.7977 23.6416 15.5833 23.9546 15.5764C24.0316 15.5764 24.092 15.6152 24.1196 15.6822C24.2295 15.9408 24.2655 16.2425 24.2655 16.5617C24.2655 16.874 24.231 17.2039 24.1965 17.5284C24.1631 17.8477 24.1286 18.1759 24.1286 18.4792C24.1286 18.4882 24.1292 18.4968 24.1292 18.5052C24.7138 18.1488 25.4793 17.7657 26.4442 17.7061C27.6034 17.638 28.4696 17.9088 29.0924 18.5324L29.276 18.6484C29.4956 18.8559 29.6171 19.2336 29.6171 19.6704C29.6171 20.2051 29.4357 20.8286 29.032 21.3378C27.9906 22.6519 26.0421 23.1904 24.6464 23.2611C24.6358 23.4356 24.5716 23.5968 24.4761 23.6421L24.4294 23.6612C24.4294 23.6612 24.3938 23.684 24.3492 23.7125L24.2558 23.7723C24.2109 23.801 24.1747 23.8243 24.1737 23.8251C24.11 23.8863 24.0199 23.9065 23.9334 23.8804C22.2772 23.409 19.5362 21.6251 17.7224 20.4445C17.7224 20.4445 16.6551 19.771 16.4121 19.6172C16.4116 19.6539 16.4116 19.6885 16.4116 19.7268C16.4116 21.1085 16.506 23.1866 16.5994 24.6247L16.6196 24.9354C16.6338 25.1472 16.6455 25.3206 16.6455 25.4781C16.6455 25.617 16.636 25.7436 16.611 25.8724L16.5643 25.9772L16.4901 25.9857C16.192 26.0214 15.7479 25.8495 15.6016 25.7505C15.6016 25.7505 15.5341 25.6792 15.5288 25.6702L15.2732 24.8099C15.1623 24.3789 15.036 23.8911 14.9252 23.7267L14.9034 23.6809L14.8992 23.6602C14.6753 22.5056 14.5564 21.0079 14.5262 18.9468C14.5262 18.9468 14.5273 18.9 14.5278 18.8697C14.4334 18.9223 14.3305 18.9798 14.3257 18.9814C14.1475 19.0607 13.8536 19.2411 13.7183 19.3485C13.6032 19.4369 13.4722 19.5374 13.3533 19.5273L13.0663 19.7007C12.8053 19.8584 12.4082 20.0984 11.9861 20.3481L11.6209 20.5627C11.0718 20.8832 10.5343 21.1851 10.2452 21.3139C9.6155 21.59 9.27813 21.7198 9.05106 21.7108C9.05106 21.7108 8.91895 21.6921 8.9163 21.6905L8.77358 21.5927C8.77358 21.5927 8.63673 21.5049 8.64046 21.5054L8.54234 21.4304L8.50784 21.3804L8.54177 21.3059C8.63035 21.1143 8.84206 20.9388 9.12321 20.8238C9.2346 20.7792 9.74654 20.5493 9.86854 20.4658L11.163 19.6061C11.163 19.6061 13.2621 18.1993 13.6228 17.9578C13.6122 17.9503 13.5947 17.9397 13.5947 17.9397C13.5947 17.9397 13.4366 17.8477 13.4361 17.8477C13.4361 17.8477 13.4035 17.8227 13.3627 17.7913L13.2775 17.725C13.2367 17.6929 13.2039 17.6665 13.2037 17.6641L11.8515 16.923L10.9677 16.4537C10.2048 16.0424 9.42767 15.5136 9.11948 15.197L9.08979 15.1183L9.0611 14.9864C9.04733 14.9369 9.03198 14.8847 9.03198 14.8342C9.03198 14.798 9.03994 14.7624 9.0611 14.7304C9.21817 14.4873 9.74761 14.1298 10.0245 14.0824C10.0245 14.0824 10.1995 14.125 10.1932 14.1207L10.8372 14.5341C10.8372 14.5341 11.2356 14.7938 11.2568 14.8071C11.4696 14.9358 11.6897 15.0688 11.869 15.0922L11.9289 15.105L11.9444 15.113C12.4446 15.3583 13.4674 15.8653 14.5745 16.5718C14.6832 14.8054 15.1448 12.5986 15.6981 11.2568C15.722 11.1966 15.766 11.1594 15.827 11.1472L16.1347 11.0349L16.3675 10.9498Z" fill="white"/>
</mask>
<g mask="url(#mask0_2111_21463)">
<path fill-rule="evenodd" clip-rule="evenodd" d="M5.34888 29.1492H32.7761V7.75H5.34888V29.1492Z" fill="#333333"/>
</g>
</svg>
