<svg width="20" height="20" viewBox="0 0 20 20" fill="none" xmlns="http://www.w3.org/2000/svg">
<g clip-path="url(#clip0_4732_149081)">
<circle cx="10" cy="10" r="10" fill="#FDCD01"/>
<mask id="mask0_4732_149081" style="mask-type:alpha" maskUnits="userSpaceOnUse" x="4" y="6" width="13" height="9">
<path fill-rule="evenodd" clip-rule="evenodd" d="M9.09306 6.08335C9.16968 6.06356 9.27491 6.03695 9.40313 6.10199L9.41784 6.10582L9.46796 6.19539C9.46796 6.19539 9.53251 6.31656 9.53455 6.31982L9.55224 6.41824C9.39457 7.24203 9.26638 8.22984 9.22423 8.92442C9.86761 8.51092 11.098 7.74508 11.6444 7.43385L11.7202 7.39187C11.8192 7.3375 11.9132 7.28636 12.0252 7.18053C12.5203 6.71501 13.065 6.46169 13.4864 6.50308C13.5238 6.51017 13.5516 6.54506 13.5598 6.57577C13.5896 6.68219 13.5872 6.7744 13.5516 6.89412L13.5398 6.97095C13.5398 6.97095 13.5144 7.05551 13.5138 7.05639C12.9733 7.6177 11.9442 8.18519 11.0367 8.68589C11.0367 8.68589 10.0936 9.22119 10.091 9.22239C10.091 9.22239 10.0323 9.26138 10.04 9.25222C10.0023 9.30957 9.82605 9.41894 9.44437 9.64298C9.44437 9.64298 9.17207 9.807 9.15996 9.82062C9.15996 9.82062 9.15908 9.85344 9.15849 9.86997L9.19744 9.89606C9.26708 9.94274 9.3925 10.0269 9.3925 10.0269C9.82633 10.3169 10.3665 10.6778 10.6504 10.906L10.701 10.948C10.7939 11.0251 10.9495 11.1543 11.0353 11.1871C11.528 11.3748 12.0709 11.7575 12.5068 12.0652C12.5068 12.0652 13.0004 12.3995 13.0228 12.4146C13.574 12.4341 14.0201 12.3711 14.426 12.2172C14.8539 12.0555 15.1799 11.798 15.3426 11.4921C15.5612 11.0786 15.5008 10.7192 15.4728 10.6787C15.2656 10.4517 15.0036 10.3668 14.672 10.4195C14.0853 10.5093 13.5887 11.1055 13.4655 11.6053C13.4655 11.6053 13.465 11.6286 13.4643 11.6577L13.4629 11.7187C13.4623 11.7479 13.4618 11.7714 13.4619 11.7717C13.4649 11.8332 13.4334 11.8784 13.3794 11.8846C13.3794 11.8846 13.3134 11.8947 13.3152 11.8941C13.1454 11.9588 12.8507 12.0377 12.757 12.0032C12.6712 11.9715 12.5601 11.8843 12.5524 11.8264C12.485 11.2474 12.4865 10.5732 12.5592 9.80585C12.5592 9.80585 12.584 9.73874 12.5825 9.74081C12.625 9.67577 12.6665 9.13843 12.6698 8.94629L12.7145 8.84847C12.7962 8.77665 13.1342 8.65753 13.3081 8.65367C13.3509 8.65367 13.3844 8.67525 13.3998 8.71249C13.4608 8.85616 13.4808 9.02376 13.4808 9.20108C13.4808 9.37458 13.4617 9.55783 13.4425 9.73814C13.4239 9.9155 13.4048 10.0979 13.4048 10.2664C13.4048 10.2714 13.4051 10.2761 13.4051 10.2808C13.7299 10.0828 14.1551 9.86997 14.6912 9.83687C15.3352 9.79904 15.8164 9.94947 16.1624 10.2959L16.2644 10.3604C16.3864 10.4756 16.4539 10.6855 16.4539 10.9281C16.4539 11.2252 16.3531 11.5716 16.1289 11.8545C15.5503 12.5845 14.4678 12.8837 13.6924 12.923C13.6865 13.0199 13.6509 13.1095 13.5978 13.1346L13.5719 13.1453C13.5719 13.1453 13.5521 13.1579 13.5273 13.1738L13.4754 13.207C13.4505 13.2229 13.4304 13.2358 13.4298 13.2363C13.3945 13.2703 13.3444 13.2815 13.2963 13.267C12.3762 13.0051 10.8534 12.0141 9.84577 11.3582C9.84577 11.3582 9.2528 10.984 9.11784 10.8986C9.11753 10.919 9.11753 10.9382 9.11753 10.9595C9.11753 11.7271 9.17 12.8816 9.22188 13.6805L9.23308 13.8531C9.24101 13.9708 9.2475 14.0672 9.2475 14.1547C9.2475 14.2318 9.2422 14.3021 9.22834 14.3737L9.2024 14.4319L9.16116 14.4366C8.99552 14.4564 8.74884 14.361 8.66751 14.306C8.66751 14.306 8.63006 14.2664 8.62711 14.2614L8.48507 13.7834C8.42347 13.544 8.35334 13.273 8.29174 13.1816L8.27966 13.1562L8.27731 13.1447C8.15292 12.5033 8.0869 11.6712 8.07012 10.5262C8.07012 10.5262 8.07072 10.5002 8.071 10.4833C8.01852 10.5125 7.96138 10.5445 7.95871 10.5454C7.8597 10.5894 7.69641 10.6896 7.62126 10.7493C7.55731 10.7984 7.48452 10.8542 7.41849 10.8486L7.25904 10.945C7.11406 11.0326 6.8934 11.1659 6.65895 11.3046L6.45607 11.4239C6.151 11.6019 5.85238 11.7696 5.69177 11.8412C5.34193 11.9946 5.1545 12.0667 5.02835 12.0617C5.02835 12.0617 4.95496 12.0513 4.95348 12.0504L4.87419 11.9961C4.87419 11.9961 4.79817 11.9473 4.80024 11.9476L4.74573 11.9059L4.72656 11.8781L4.74541 11.8367C4.79462 11.7303 4.91224 11.6328 5.06843 11.5689C5.13031 11.5441 5.41473 11.4164 5.4825 11.37L6.20162 10.8924C6.20162 10.8924 7.36781 10.1109 7.56819 9.97668C7.56233 9.97253 7.55257 9.96664 7.55257 9.96664C7.55257 9.96664 7.46476 9.9155 7.46447 9.9155C7.46447 9.9155 7.44636 9.90166 7.42371 9.88417L7.37636 9.84735C7.35368 9.82953 7.3355 9.81486 7.33538 9.81353L6.58414 9.40178L6.09317 9.14109C5.66934 8.9126 5.23758 8.61881 5.06636 8.44293L5.04987 8.39919L5.03393 8.32591C5.02628 8.29839 5.01775 8.26943 5.01775 8.24135C5.01775 8.22124 5.02217 8.20144 5.03393 8.18372C5.12119 8.04865 5.41532 7.85002 5.56916 7.8237C5.56916 7.8237 5.66639 7.84736 5.66288 7.84497L6.02065 8.07466C6.02065 8.07466 6.24199 8.21889 6.25378 8.22629C6.37196 8.29783 6.49425 8.37171 6.59386 8.3847L6.62717 8.39179L6.63574 8.39625C6.91366 8.5325 7.48185 8.81418 8.09693 9.2067C8.15734 8.22538 8.41374 6.99935 8.72115 6.2539C8.73441 6.22049 8.75888 6.19982 8.79275 6.19301L8.96369 6.13063L9.09306 6.08335Z" fill="white"/>
</mask>
<g mask="url(#mask0_4732_149081)">
<path fill-rule="evenodd" clip-rule="evenodd" d="M2.97266 16.1944H18.21V4.30591H2.97266V16.1944Z" fill="#1A150A"/>
</g>
</g>
<defs>
<clipPath id="clip0_4732_149081">
<rect width="20" height="20" fill="white"/>
</clipPath>
</defs>
</svg>
