<svg xmlns="http://www.w3.org/2000/svg" xmlns:xlink="http://www.w3.org/1999/xlink" width="56" height="56" viewBox="0 0 56 56">
    <defs>
        <circle id="5alvpow3sa" cx="28" cy="28" r="28"/>
    </defs>
    <g fill="none" fill-rule="evenodd">
        <g>
            <g>
                <g>
                    <g>
                        <g transform="translate(-200 -454) translate(0 370) translate(24 52) translate(140) translate(36 32)">
                            <mask id="5xazkokybb" fill="#fff">
                                <use xlink:href="#5alvpow3sa"/>
                            </mask>
                            <use fill="#2F2F3B" xlink:href="#5alvpow3sa"/>
                            <g mask="url(#5xazkokybb)">
                                <rect width="56" height="56" fill="#2F2F3B" rx="28"/>
                                <path fill="#FC0" d="M14 14L23.516 14 27.973 27.193 28.027 27.193 32.485 14 42 14 42 34 35.875 34 35.875 19.042 35.82 19.042 30.68 34 25.32 34 20.18 19.042 20.125 19.042 20.125 34 14 34z"/>
                                <path fill="#7D7E85" fill-rule="nonzero" d="M20.096 44v-3.987c.165-.065.341-.119.529-.163.187-.044.373-.066.557-.066.311 0 .53.082.658.246.127.164.19.413.19.747V44h1.096v-3.944c.127-.082.273-.147.438-.197.165-.05.36-.075.582-.075.324 0 .56.072.71.215.149.144.223.403.223.778V44h1.096v-3.311c0-.592-.154-1.034-.462-1.326-.308-.293-.799-.44-1.472-.44-.362 0-.66.044-.896.132-.235.088-.422.17-.562.246-.083-.076-.243-.158-.481-.246s-.58-.132-1.025-.132c-.305 0-.66.043-1.067.128-.406.085-.81.2-1.21.347V44h1.096zm7.947-5.735c.19 0 .352-.054.486-.163.133-.108.2-.265.2-.47 0-.205-.067-.361-.2-.47-.134-.108-.296-.162-.486-.162s-.353.054-.486.162c-.133.109-.2.265-.2.47 0 .205.067.362.2.47.133.109.295.163.486.163zM28.605 44v-4.945H27.51V44h1.096zm2.43 0v-3.97c.133-.053.303-.107.51-.162.206-.056.443-.084.71-.084.73 0 1.095.39 1.095 1.168V44h1.096v-3.311c0-.592-.187-1.034-.562-1.326-.375-.293-.886-.44-1.534-.44-.362 0-.734.037-1.115.11-.381.073-.813.195-1.296.365V44h1.096zm5.279-5.735c.19 0 .352-.054.486-.163.133-.108.2-.265.2-.47 0-.205-.067-.361-.2-.47-.134-.108-.296-.162-.486-.162s-.353.054-.486.162c-.133.109-.2.265-.2.47 0 .205.067.362.2.47.133.109.295.163.486.163zM36.876 44v-4.945H35.78V44h1.096z"/>
                            </g>
                        </g>
                    </g>
                </g>
            </g>
        </g>
    </g>
</svg>
